<?xml version="1.0" standalone="no"?>
<!DOCTYPE svg PUBLIC "-//W3C//DTD SVG 20010904//EN"
 "http://www.w3.org/TR/2001/REC-SVG-20010904/DTD/svg10.dtd">
<svg version="1.0" xmlns="http://www.w3.org/2000/svg"
 width="150.000000pt" height="50.000000pt" viewBox="0 0 250.000000 200.000000"
 preserveAspectRatio="xMidYMid meet">

<g transform="translate(0.000000,244.000000) scale(0.100000,-0.100000)"
fill="#000000" stroke="none">
<path d="M1309 1889 c-111 -9 -197 -34 -244 -71 -35 -27 -62 -72 -115 -190
-24 -54 -47 -98 -51 -98 -4 0 -20 7 -35 15 -42 22 -106 19 -132 -5 -28 -26
-38 -82 -23 -131 12 -41 35 -59 74 -59 34 0 38 -9 22 -41 -8 -15 -15 -30 -15
-34 0 -3 155 -5 344 -5 l344 0 29 24 c46 38 69 46 128 46 51 0 59 3 83 31 76
91 248 91 324 0 23 -27 33 -31 76 -31 60 0 109 16 122 40 6 10 10 46 10 79 0
52 -3 62 -26 80 -32 25 -83 27 -130 5 -19 -9 -36 -15 -38 -13 -2 2 -31 61 -64
131 -68 140 -98 173 -190 202 -86 27 -324 39 -493 25z"/>
<path d="M1833 1300 c-44 -18 -24 -30 47 -30 72 0 91 13 44 30 -31 12 -61 12
-91 0z"/>
<path d="M715 1144 c-11 -11 -15 -30 -13 -57 4 -52 40 -78 82 -59 23 10 26 18
26 60 0 26 -5 53 -12 60 -17 17 -64 15 -83 -4z m71 -40 c8 -31 -14 -58 -39
-48 -17 6 -24 54 -10 67 16 16 43 6 49 -19z"/>
<path d="M1095 1135 c-14 -13 -25 -33 -25 -45 0 -25 42 -70 65 -70 23 0 55 19
55 32 0 6 -11 8 -30 5 -28 -6 -60 12 -60 33 0 19 34 41 55 36 27 -7 38 3 24
21 -18 21 -58 15 -84 -12z"/>
<path d="M1938 1152 c-40 -3 -56 -32 -18 -32 17 0 20 -7 20 -51 0 -66 24 -62
28 4 3 39 6 47 23 47 24 0 25 26 2 31 -10 2 -35 3 -55 1z"/>
<path d="M2062 1148 c-7 -7 -12 -34 -12 -60 0 -42 3 -50 26 -60 42 -19 78 7
82 59 2 27 -2 46 -13 57 -19 19 -66 21 -83 4z m66 -52 c3 -26 -10 -45 -30 -46
-14 0 -29 41 -23 61 10 32 49 21 53 -15z"/>
<path d="M2216 1138 c-20 -28 -5 -57 35 -65 19 -4 27 -9 21 -15 -6 -6 -17 -6
-30 1 -28 15 -42 -7 -17 -26 26 -19 49 -16 71 8 22 24 10 50 -26 59 -13 3 -26
12 -28 19 -3 10 3 11 27 6 24 -5 31 -3 31 8 0 32 -62 36 -84 5z"/>
<path d="M860 1085 c0 -40 4 -65 11 -65 6 0 13 9 16 20 4 14 14 20 34 20 19 0
29 5 29 15 0 10 -10 15 -30 15 -20 0 -30 5 -30 15 0 10 11 15 35 15 24 0 35 5
35 15 0 11 -12 15 -50 15 l-50 0 0 -65z"/>
<path d="M1002 1088 c2 -38 8 -63 16 -66 9 -3 12 14 12 62 0 53 -3 66 -15 66
-13 0 -15 -11 -13 -62z"/>
<path d="M1232 1088 c2 -38 8 -63 16 -66 9 -3 12 14 12 62 0 53 -3 66 -15 66
-13 0 -15 -11 -13 -62z"/>
<path d="M1312 1088 c2 -38 8 -63 16 -66 8 -2 12 7 12 27 0 39 11 39 33 1 10
-16 22 -30 28 -30 5 0 9 29 9 65 0 37 -4 65 -10 65 -5 0 -10 -11 -10 -25 0
-14 -4 -25 -9 -25 -5 0 -16 11 -25 25 -9 14 -23 25 -32 25 -12 0 -14 -12 -12
-62z"/>
<path d="M1487 1098 c-9 -29 -17 -57 -17 -62 0 -8 88 -13 114 -7 3 1 -4 28
-16 61 -16 49 -24 60 -42 60 -18 0 -25 -10 -39 -52z m53 -20 c0 -5 -7 -8 -15
-8 -17 0 -18 2 -9 25 5 13 8 14 15 3 5 -7 9 -16 9 -20z"/>
<path d="M1772 1090 c-11 -33 -17 -62 -13 -65 5 -2 23 0 41 5 23 6 38 6 46 -1
28 -23 32 2 11 61 -18 48 -26 60 -44 60 -17 0 -25 -11 -41 -60z m58 -12 c0 -5
-7 -8 -15 -8 -15 0 -20 21 -8 33 7 7 23 -11 23 -25z"/>
<path d="M760 819 c0 -55 4 -109 10 -119 28 -52 197 -54 236 -2 8 9 14 36 14
60 l0 42 150 0 150 0 0 60 0 60 -280 0 -280 0 0 -101z"/>
<path d="M1450 877 c0 -50 22 -77 61 -77 32 0 41 -8 60 -50 16 -34 16 -36 -9
-78 l-25 -44 20 -26 c10 -14 31 -34 45 -45 26 -19 26 -19 69 6 l44 25 43 -20
c34 -15 42 -24 42 -46 0 -46 25 -72 71 -72 58 0 76 13 84 61 6 36 12 43 49 59
40 17 42 17 81 -5 45 -25 58 -24 98 13 33 31 34 63 6 104 l-22 30 21 44 c18
37 27 44 50 44 45 0 65 21 66 71 l1 44 -137 3 -138 3 0 -33 c0 -84 -73 -158
-156 -158 -75 0 -144 71 -144 149 l0 41 -140 0 -140 0 0 -43z"/>
</g>
</svg>
